<svg xmlns="http://www.w3.org/2000/svg" viewBox="0 0 520.25 110.2">
  <defs>
    <style>
      .a {
        fill: #060c36;
      }
    </style>
  </defs>
  <title>LogoWattNow</title>
  <g>
    <path class="a" d="M315.83,17.78a15.42,15.42,0,1,0-20.72,14.42V80.83L228.31,14a5.3,5.3,0,0,0-9.05,3.75V78.47c-0.39.15-.78,0.29-1.16,0.47L169.48,30.3a15.24,15.24,0,0,0,1.47-6.46,15.42,15.42,0,1,0-29.38,6.46L91.79,80.09V18.88a5.3,5.3,0,0,0-9.05-3.75l-62,62v-45a15.42,15.42,0,1,0-10.6,0V89.95a5.3,5.3,0,0,0,9.05,3.75l62-62V92.89a5.3,5.3,0,0,0,9.05,3.75L149.06,37.8a15,15,0,0,0,12.91,0L210.6,86.43a15.41,15.41,0,1,0,19.26-8V30.58l66.8,66.81a5.31,5.31,0,0,0,3.75,1.55,5.37,5.37,0,0,0,2-.4,5.3,5.3,0,0,0,3.27-4.9V32.19A15.39,15.39,0,0,0,315.83,17.78ZM15.42,22.59a4.81,4.81,0,1,1,4.82-4.81A4.82,4.82,0,0,1,15.42,22.59ZM224.56,97.7a4.81,4.81,0,1,1,4.82-4.81A4.82,4.82,0,0,1,224.56,97.7ZM150.7,23.85a4.82,4.82,0,1,1,4.82,4.82A4.82,4.82,0,0,1,150.7,23.85Zm149.71-1.26a4.81,4.81,0,1,1,4.82-4.81A4.82,4.82,0,0,1,300.41,22.59Z"/>
    <g>
      <path class="a" d="M395.14,45.65a4.15,4.15,0,0,1-.61,1.42,2.37,2.37,0,0,1-1.17.81,7.73,7.73,0,0,1-2,.37q-1.22.09-3.11,0.09-2.11,0-3.39-.09a7.39,7.39,0,0,1-2-.37,2,2,0,0,1-1.07-.81,4.37,4.37,0,0,1-.52-1.42L373.6,15.29h-0.07l-7.26,30.36a4.37,4.37,0,0,1-.52,1.39,2.15,2.15,0,0,1-1.06.83,6.61,6.61,0,0,1-2,.39q-1.24.09-3.28,0.09T356,48.26a7.37,7.37,0,0,1-2-.37,2,2,0,0,1-1.07-.81,5,5,0,0,1-.56-1.42L341.5,3.85a11.57,11.57,0,0,1-.37-2.09,1.39,1.39,0,0,1,.43-1.17,2.65,2.65,0,0,1,1.52-.5Q344.12,0,346,0t2.76,0.05a5.3,5.3,0,0,1,1.54.26,1.23,1.23,0,0,1,.7.59A4.07,4.07,0,0,1,351.31,2l8.4,36.69h0l8.74-36.43a4.27,4.27,0,0,1,.39-1.15,1.57,1.57,0,0,1,.82-0.69,5.42,5.42,0,0,1,1.57-.33q1-.09,2.66-0.09t2.83,0.07a5.35,5.35,0,0,1,1.63.31,1.67,1.67,0,0,1,.83.68,3.82,3.82,0,0,1,.41,1.19l9,36.43h0.07l8.4-36.58a4.65,4.65,0,0,1,.3-1,1.32,1.32,0,0,1,.7-0.67,4.68,4.68,0,0,1,1.48-.33C400.27,0,401.17,0,402.33,0s1.93,0,2.54.09a2.13,2.13,0,0,1,1.31.5,1.49,1.49,0,0,1,.35,1.21A13.9,13.9,0,0,1,406.14,4Z"/>
      <path class="a" d="M449.13,44.5a12.88,12.88,0,0,1,.56,2.11,1.27,1.27,0,0,1-.29,1.17,2.43,2.43,0,0,1-1.44.48q-1,.09-2.85.09t-2.94-.06a7.47,7.47,0,0,1-1.61-.22,1.49,1.49,0,0,1-.78-0.46,2.53,2.53,0,0,1-.37-0.78l-3.22-9.63h-18l-3,9.37a3,3,0,0,1-.39.87A1.57,1.57,0,0,1,414,48a5.76,5.76,0,0,1-1.52.28c-0.66,0-1.51.07-2.58,0.07a24.5,24.5,0,0,1-2.66-.11,2,2,0,0,1-1.33-.54,1.45,1.45,0,0,1-.26-1.2,11.85,11.85,0,0,1,.56-2.07L421,1.93a3.72,3.72,0,0,1,.52-1,1.82,1.82,0,0,1,.94-0.59,7.57,7.57,0,0,1,1.8-.26q1.15-.05,3-0.05,2.19,0,3.48.05a9.39,9.39,0,0,1,2,.26,1.92,1.92,0,0,1,1,.61A3.56,3.56,0,0,1,434.32,2Zm-22-35.14h0l-6.77,20.36h13.59Z"/>
      <path class="a" d="M481.78,4.22a15.55,15.55,0,0,1-.09,1.83,5.1,5.1,0,0,1-.28,1.22,1.63,1.63,0,0,1-.46.68,1,1,0,0,1-.61.22h-12V46.8a1,1,0,0,1-.24.67,1.7,1.7,0,0,1-.8.48,8,8,0,0,1-1.5.29,24.45,24.45,0,0,1-4.7,0,7.94,7.94,0,0,1-1.5-.29,1.7,1.7,0,0,1-.79-0.48,1,1,0,0,1-.24-0.67V8.18h-12A0.93,0.93,0,0,1,445.94,8a1.69,1.69,0,0,1-.45-0.68,5,5,0,0,1-.28-1.22,15.58,15.58,0,0,1-.09-1.83,16.45,16.45,0,0,1,.09-1.89,5.07,5.07,0,0,1,.28-1.24,1.55,1.55,0,0,1,.45-0.67,1,1,0,0,1,.63-0.2h33.76a1,1,0,0,1,.61.2,1.5,1.5,0,0,1,.46.67,5.21,5.21,0,0,1,.28,1.24A16.43,16.43,0,0,1,481.78,4.22Z"/>
      <path class="a" d="M520.25,4.22a15.55,15.55,0,0,1-.09,1.83,5.11,5.11,0,0,1-.28,1.22,1.64,1.64,0,0,1-.46.68,1,1,0,0,1-.61.22h-12V46.8a1,1,0,0,1-.24.67,1.69,1.69,0,0,1-.79.48,7.94,7.94,0,0,1-1.5.29,24.44,24.44,0,0,1-4.7,0,7.94,7.94,0,0,1-1.5-.29,1.7,1.7,0,0,1-.79-0.48A1,1,0,0,1,497,46.8V8.18H485A0.93,0.93,0,0,1,484.41,8,1.7,1.7,0,0,1,484,7.27a5,5,0,0,1-.28-1.22,15.55,15.55,0,0,1-.09-1.83,16.43,16.43,0,0,1,.09-1.89A5.12,5.12,0,0,1,484,1.09a1.56,1.56,0,0,1,.45-0.67A1,1,0,0,1,485,.22h33.76a1,1,0,0,1,.61.2,1.5,1.5,0,0,1,.46.67,5.22,5.22,0,0,1,.28,1.24A16.43,16.43,0,0,1,520.25,4.22Z"/>
      <path class="a" d="M384.22,105.94a3.7,3.7,0,0,1-.3,1.52,3.13,3.13,0,0,1-.8,1.11,3,3,0,0,1-1.18.65,4.87,4.87,0,0,1-1.39.2h-4.15a8.54,8.54,0,0,1-2.24-.26,4.44,4.44,0,0,1-1.74-.95,8.16,8.16,0,0,1-1.54-1.85,34.38,34.38,0,0,1-1.67-3L357.3,81q-1-2-2.11-4.31t-1.92-4.5H353.2q0.15,2.67.22,5.31t0.07,5.46V108a1.16,1.16,0,0,1-.2.67,1.52,1.52,0,0,1-.71.5,5.62,5.62,0,0,1-1.35.31,17.44,17.44,0,0,1-2.19.11,17.05,17.05,0,0,1-2.15-.11,5.31,5.31,0,0,1-1.33-.31,1.37,1.37,0,0,1-.66-0.5,1.21,1.21,0,0,1-.19-0.67V64.92a3.24,3.24,0,0,1,1-2.61,3.72,3.72,0,0,1,2.5-.87h5.22a10,10,0,0,1,2.37.24,4.88,4.88,0,0,1,1.72.8A6.17,6.17,0,0,1,359,64a19.68,19.68,0,0,1,1.37,2.43L369.67,84l1.61,3.13c0.53,1,1,2.05,1.54,3.08s1,2,1.44,3,0.93,2,1.37,3h0q-0.11-2.59-.17-5.41t-0.05-5.37V62.89a1.09,1.09,0,0,1,.22-0.67,1.79,1.79,0,0,1,.74-0.52,5,5,0,0,1,1.37-.32c0.57-.06,1.29-0.09,2.18-0.09s1.54,0,2.11.09a4.27,4.27,0,0,1,1.31.32,1.51,1.51,0,0,1,.65.52,1.25,1.25,0,0,1,.19.67v43.06Z"/>
      <path class="a" d="M437.76,84.84a35.55,35.55,0,0,1-1.48,10.66,21.51,21.51,0,0,1-4.41,8,19,19,0,0,1-7.24,5,26.81,26.81,0,0,1-10,1.72,29.45,29.45,0,0,1-9.75-1.46,16.92,16.92,0,0,1-6.94-4.46,19.08,19.08,0,0,1-4.16-7.63,38.31,38.31,0,0,1-1.39-11,34.45,34.45,0,0,1,1.48-10.46,21.41,21.41,0,0,1,4.41-7.9,19.22,19.22,0,0,1,7.24-5,26.65,26.65,0,0,1,10-1.74A29.3,29.3,0,0,1,425.15,62a16.91,16.91,0,0,1,7,4.44,19.36,19.36,0,0,1,4.22,7.57A36.43,36.43,0,0,1,437.76,84.84Zm-10.22.52a36.4,36.4,0,0,0-.59-6.87,14.78,14.78,0,0,0-2-5.29,9.66,9.66,0,0,0-3.8-3.41,13,13,0,0,0-5.92-1.2,12.11,12.11,0,0,0-6,1.35,11,11,0,0,0-3.89,3.61,14.94,14.94,0,0,0-2.09,5.27,32.16,32.16,0,0,0-.61,6.39,38.12,38.12,0,0,0,.59,7.05,15.12,15.12,0,0,0,2,5.35A9.15,9.15,0,0,0,409,101a13.44,13.44,0,0,0,6,1.17,12.25,12.25,0,0,0,6-1.33,10.76,10.76,0,0,0,3.89-3.63,15.25,15.25,0,0,0,2.09-5.35A33.11,33.11,0,0,0,427.54,85.36Z"/>
      <path class="a" d="M495.45,106.87a4.14,4.14,0,0,1-.61,1.42,2.37,2.37,0,0,1-1.17.81,7.75,7.75,0,0,1-2,.37q-1.22.09-3.11,0.09-2.11,0-3.39-.09a7.43,7.43,0,0,1-2-.37,2,2,0,0,1-1.07-.81,4.37,4.37,0,0,1-.52-1.42L473.9,76.51h-0.07l-7.26,30.36a4.4,4.4,0,0,1-.52,1.39,2.15,2.15,0,0,1-1.06.83,6.6,6.6,0,0,1-2,.39c-0.83.06-1.92,0.09-3.28,0.09s-2.57,0-3.42-.09a7.41,7.41,0,0,1-2-.37,2,2,0,0,1-1.07-.81,5,5,0,0,1-.56-1.42L441.8,65.07a11.57,11.57,0,0,1-.37-2.09,1.39,1.39,0,0,1,.43-1.17,2.64,2.64,0,0,1,1.52-.5q1.06-.09,2.94-0.09t2.76,0.05a5.32,5.32,0,0,1,1.54.26,1.23,1.23,0,0,1,.7.59,4,4,0,0,1,.29,1.09L460,99.91h0l8.74-36.43a4.25,4.25,0,0,1,.39-1.15,1.57,1.57,0,0,1,.82-0.69,5.43,5.43,0,0,1,1.57-.33q1-.09,2.67-0.09t2.83,0.07a5.34,5.34,0,0,1,1.63.31,1.67,1.67,0,0,1,.83.69,3.79,3.79,0,0,1,.41,1.19l9,36.43H489l8.4-36.58a4.64,4.64,0,0,1,.3-1,1.33,1.33,0,0,1,.7-0.67,4.67,4.67,0,0,1,1.48-.33c0.64-.06,1.54-0.09,2.7-0.09s1.93,0,2.54.09a2.12,2.12,0,0,1,1.32.5,1.49,1.49,0,0,1,.35,1.21,14,14,0,0,1-.39,2.16Z"/>
    </g>
  </g>
</svg>
